<mxfile host="Electron" modified="2023-12-26T05:43:45.062Z" agent="Mozilla/5.0 (Macintosh; Intel Mac OS X 10_15_7) AppleWebKit/537.36 (KHTML, like Gecko) draw.io/22.1.11 Chrome/114.0.5735.289 Electron/25.9.8 Safari/537.36" etag="k3U06dS5EfDlxaDb9ssr" version="22.1.11" type="device" pages="3">
  <diagram id="66c-x2g1Oy05edULmnPe" name="Initial Form Prototype">
    <mxGraphModel dx="533" dy="1487" grid="1" gridSize="10" guides="1" tooltips="1" connect="1" arrows="1" fold="1" page="1" pageScale="1" pageWidth="850" pageHeight="1100" math="0" shadow="0">
      <root>
        <mxCell id="0" />
        <mxCell id="1" parent="0" />
        <mxCell id="B3MzJ2nD6p5_VZ6Lh8bi-1" value="" style="strokeWidth=1;shadow=0;dashed=0;align=center;html=1;shape=mxgraph.mockup.containers.browserWindow;rSize=0;strokeColor=#666666;mainText=,;recursiveResize=0;rounded=0;labelBackgroundColor=none;fontFamily=Verdana;fontSize=12" vertex="1" parent="1">
          <mxGeometry x="1770" y="100" width="730" height="680" as="geometry" />
        </mxCell>
        <mxCell id="B3MzJ2nD6p5_VZ6Lh8bi-2" value="Page 1" style="strokeWidth=1;shadow=0;dashed=0;align=center;html=1;shape=mxgraph.mockup.containers.anchor;fontSize=17;fontColor=#666666;align=left;" vertex="1" parent="B3MzJ2nD6p5_VZ6Lh8bi-1">
          <mxGeometry x="60" y="12" width="110" height="26" as="geometry" />
        </mxCell>
        <mxCell id="B3MzJ2nD6p5_VZ6Lh8bi-3" value="https://www.generic.com" style="strokeWidth=1;shadow=0;dashed=0;align=center;html=1;shape=mxgraph.mockup.containers.anchor;rSize=0;fontSize=17;fontColor=#666666;align=left;" vertex="1" parent="B3MzJ2nD6p5_VZ6Lh8bi-1">
          <mxGeometry x="130" y="60" width="250" height="26" as="geometry" />
        </mxCell>
        <mxCell id="B3MzJ2nD6p5_VZ6Lh8bi-5" value="&lt;font color=&quot;#ffffff&quot;&gt;Hello World&lt;/font&gt;" style="text;html=1;points=[];align=left;verticalAlign=top;spacingTop=-4;fontSize=15;fontFamily=Verdana" vertex="1" parent="B3MzJ2nD6p5_VZ6Lh8bi-1">
          <mxGeometry x="10" y="120" width="170" height="30" as="geometry" />
        </mxCell>
        <mxCell id="nZaMEUbj1lU-uja89Xi7-1" value="Get Started" style="strokeWidth=1;shadow=0;dashed=0;align=center;html=1;shape=mxgraph.mockup.buttons.button;strokeColor=#666666;mainText=;buttonStyle=round;fontSize=17;fontStyle=0;fillColor=none;whiteSpace=wrap;rounded=0;labelBackgroundColor=none;" vertex="1" parent="B3MzJ2nD6p5_VZ6Lh8bi-1">
          <mxGeometry x="270" y="360" width="190" height="30" as="geometry" />
        </mxCell>
        <mxCell id="nZaMEUbj1lU-uja89Xi7-2" value="" style="strokeWidth=1;shadow=0;dashed=0;align=center;html=1;shape=mxgraph.mockup.containers.browserWindow;rSize=0;strokeColor=#666666;mainText=,;recursiveResize=0;rounded=0;labelBackgroundColor=none;fontFamily=Verdana;fontSize=12" vertex="1" parent="1">
          <mxGeometry x="2600" y="100" width="730" height="680" as="geometry" />
        </mxCell>
        <mxCell id="nZaMEUbj1lU-uja89Xi7-3" value="Page 1" style="strokeWidth=1;shadow=0;dashed=0;align=center;html=1;shape=mxgraph.mockup.containers.anchor;fontSize=17;fontColor=#666666;align=left;" vertex="1" parent="nZaMEUbj1lU-uja89Xi7-2">
          <mxGeometry x="60" y="12" width="110" height="26" as="geometry" />
        </mxCell>
        <mxCell id="nZaMEUbj1lU-uja89Xi7-4" value="https://www.generic.com/get-started" style="strokeWidth=1;shadow=0;dashed=0;align=center;html=1;shape=mxgraph.mockup.containers.anchor;rSize=0;fontSize=17;fontColor=#666666;align=left;" vertex="1" parent="nZaMEUbj1lU-uja89Xi7-2">
          <mxGeometry x="130" y="60" width="250" height="26" as="geometry" />
        </mxCell>
        <mxCell id="nZaMEUbj1lU-uja89Xi7-6" value="Submit" style="strokeWidth=1;shadow=0;dashed=0;align=center;html=1;shape=mxgraph.mockup.buttons.button;strokeColor=#666666;mainText=;buttonStyle=round;fontSize=17;fontStyle=0;fillColor=none;whiteSpace=wrap;rounded=0;labelBackgroundColor=none;" vertex="1" parent="nZaMEUbj1lU-uja89Xi7-2">
          <mxGeometry x="270" y="520" width="190" height="30" as="geometry" />
        </mxCell>
        <mxCell id="vpqn5ZN-xA_QySLhWWD3-1" value="" style="verticalLabelPosition=bottom;verticalAlign=top;html=1;shape=mxgraph.basic.patternFillRect;fillStyle=diag;step=5;fillStrokeWidth=0.2;fillStrokeColor=#dddddd;" vertex="1" parent="nZaMEUbj1lU-uja89Xi7-2">
          <mxGeometry x="145" y="170" width="440" height="270" as="geometry" />
        </mxCell>
        <mxCell id="nZaMEUbj1lU-uja89Xi7-5" value="&lt;font color=&quot;#ffffff&quot;&gt;Form with Name, Email, Comments, Multiple File Selection with Drag and Drop&lt;/font&gt;" style="text;html=1;points=[];align=center;verticalAlign=top;spacingTop=-4;fontSize=15;fontFamily=Verdana;whiteSpace=wrap;" vertex="1" parent="nZaMEUbj1lU-uja89Xi7-2">
          <mxGeometry x="190" y="280" width="350" height="50" as="geometry" />
        </mxCell>
      </root>
    </mxGraphModel>
  </diagram>
  <diagram id="XNqmxK6YkW4KGfwdrprH" name="MVP">
    <mxGraphModel dx="756" dy="1636" grid="1" gridSize="10" guides="1" tooltips="1" connect="1" arrows="1" fold="1" page="1" pageScale="1" pageWidth="850" pageHeight="1100" math="0" shadow="0">
      <root>
        <mxCell id="0" />
        <mxCell id="1" parent="0" />
        <mxCell id="rZcW4xtwQy9miEPIbyFW-20" value="" style="strokeWidth=1;shadow=0;dashed=0;align=center;html=1;shape=mxgraph.mockup.containers.browserWindow;rSize=0;strokeColor=#666666;mainText=,;recursiveResize=0;rounded=0;labelBackgroundColor=none;fontFamily=Verdana;fontSize=12" vertex="1" parent="1">
          <mxGeometry x="3360" y="10" width="1050" height="680" as="geometry" />
        </mxCell>
        <mxCell id="rZcW4xtwQy9miEPIbyFW-21" value="Page 1" style="strokeWidth=1;shadow=0;dashed=0;align=center;html=1;shape=mxgraph.mockup.containers.anchor;fontSize=17;fontColor=#666666;align=left;" vertex="1" parent="rZcW4xtwQy9miEPIbyFW-20">
          <mxGeometry x="60" y="12" width="110" height="26" as="geometry" />
        </mxCell>
        <mxCell id="rZcW4xtwQy9miEPIbyFW-22" value="https://www.ampsunlimited.com" style="strokeWidth=1;shadow=0;dashed=0;align=center;html=1;shape=mxgraph.mockup.containers.anchor;rSize=0;fontSize=17;fontColor=#666666;align=left;" vertex="1" parent="rZcW4xtwQy9miEPIbyFW-20">
          <mxGeometry x="130" y="60" width="250" height="26" as="geometry" />
        </mxCell>
        <mxCell id="rZcW4xtwQy9miEPIbyFW-23" value="" style="verticalLabelPosition=bottom;shadow=0;dashed=0;align=center;html=1;verticalAlign=top;strokeWidth=1;shape=mxgraph.mockup.markup.line;strokeColor=#999999;rounded=0;labelBackgroundColor=none;fillColor=#ffffff;fontFamily=Verdana;fontSize=12;fontColor=#000000;" vertex="1" parent="rZcW4xtwQy9miEPIbyFW-20">
          <mxGeometry y="146" width="1050" height="20" as="geometry" />
        </mxCell>
        <mxCell id="rZcW4xtwQy9miEPIbyFW-29" value="AMPS (Logo)" style="text;html=1;points=[];align=left;verticalAlign=top;spacingTop=-4;fontSize=15;fontFamily=Verdana" vertex="1" parent="rZcW4xtwQy9miEPIbyFW-20">
          <mxGeometry x="10" y="120" width="170" height="30" as="geometry" />
        </mxCell>
        <mxCell id="rZcW4xtwQy9miEPIbyFW-30" value="About" style="text;html=1;points=[];align=center;verticalAlign=top;spacingTop=-4;fontSize=15;fontFamily=Verdana" vertex="1" parent="rZcW4xtwQy9miEPIbyFW-20">
          <mxGeometry x="830" y="120" width="90" height="30" as="geometry" />
        </mxCell>
        <mxCell id="rZcW4xtwQy9miEPIbyFW-31" value="&lt;font color=&quot;#ff3333&quot;&gt;Contact Us&lt;/font&gt;" style="text;html=1;points=[];align=center;verticalAlign=top;spacingTop=-4;fontSize=15;fontFamily=Verdana" vertex="1" parent="rZcW4xtwQy9miEPIbyFW-20">
          <mxGeometry x="930" y="120" width="90" height="30" as="geometry" />
        </mxCell>
        <mxCell id="rZcW4xtwQy9miEPIbyFW-4" value="Form Submission" style="text;html=1;points=[];align=center;verticalAlign=top;spacingTop=-4;fontSize=15;fontFamily=Verdana" vertex="1" parent="rZcW4xtwQy9miEPIbyFW-20">
          <mxGeometry x="440" y="350" width="170" height="30" as="geometry" />
        </mxCell>
        <mxCell id="rZcW4xtwQy9miEPIbyFW-36" value="" style="strokeWidth=1;shadow=0;dashed=0;align=center;html=1;shape=mxgraph.mockup.containers.browserWindow;rSize=0;strokeColor=#666666;mainText=,;recursiveResize=0;rounded=0;labelBackgroundColor=none;fontFamily=Verdana;fontSize=12" vertex="1" parent="1">
          <mxGeometry x="2220" y="10" width="1050" height="680" as="geometry" />
        </mxCell>
        <mxCell id="rZcW4xtwQy9miEPIbyFW-37" value="Page 1" style="strokeWidth=1;shadow=0;dashed=0;align=center;html=1;shape=mxgraph.mockup.containers.anchor;fontSize=17;fontColor=#666666;align=left;" vertex="1" parent="rZcW4xtwQy9miEPIbyFW-36">
          <mxGeometry x="60" y="12" width="110" height="26" as="geometry" />
        </mxCell>
        <mxCell id="rZcW4xtwQy9miEPIbyFW-38" value="https://www.ampsunlimited.com" style="strokeWidth=1;shadow=0;dashed=0;align=center;html=1;shape=mxgraph.mockup.containers.anchor;rSize=0;fontSize=17;fontColor=#666666;align=left;" vertex="1" parent="rZcW4xtwQy9miEPIbyFW-36">
          <mxGeometry x="130" y="60" width="250" height="26" as="geometry" />
        </mxCell>
        <mxCell id="rZcW4xtwQy9miEPIbyFW-39" value="" style="verticalLabelPosition=bottom;shadow=0;dashed=0;align=center;html=1;verticalAlign=top;strokeWidth=1;shape=mxgraph.mockup.markup.line;strokeColor=#999999;rounded=0;labelBackgroundColor=none;fillColor=#ffffff;fontFamily=Verdana;fontSize=12;fontColor=#000000;" vertex="1" parent="rZcW4xtwQy9miEPIbyFW-36">
          <mxGeometry y="146" width="1050" height="20" as="geometry" />
        </mxCell>
        <mxCell id="rZcW4xtwQy9miEPIbyFW-40" value="&lt;font color=&quot;#ff3333&quot;&gt;AMPS (Logo)&lt;/font&gt;" style="text;html=1;points=[];align=left;verticalAlign=top;spacingTop=-4;fontSize=15;fontFamily=Verdana" vertex="1" parent="rZcW4xtwQy9miEPIbyFW-36">
          <mxGeometry x="10" y="120" width="170" height="30" as="geometry" />
        </mxCell>
        <mxCell id="rZcW4xtwQy9miEPIbyFW-41" value="About" style="text;html=1;points=[];align=center;verticalAlign=top;spacingTop=-4;fontSize=15;fontFamily=Verdana" vertex="1" parent="rZcW4xtwQy9miEPIbyFW-36">
          <mxGeometry x="830" y="120" width="90" height="30" as="geometry" />
        </mxCell>
        <mxCell id="rZcW4xtwQy9miEPIbyFW-42" value="Contact Us" style="text;html=1;points=[];align=center;verticalAlign=top;spacingTop=-4;fontSize=15;fontFamily=Verdana" vertex="1" parent="rZcW4xtwQy9miEPIbyFW-36">
          <mxGeometry x="930" y="120" width="90" height="30" as="geometry" />
        </mxCell>
        <mxCell id="rZcW4xtwQy9miEPIbyFW-43" value="" style="strokeWidth=1;shadow=0;dashed=0;align=center;html=1;shape=mxgraph.mockup.containers.browserWindow;rSize=0;strokeColor=#666666;mainText=,;recursiveResize=0;rounded=0;labelBackgroundColor=none;fontFamily=Verdana;fontSize=12" vertex="1" parent="1">
          <mxGeometry x="2220" y="730" width="1050" height="680" as="geometry" />
        </mxCell>
        <mxCell id="rZcW4xtwQy9miEPIbyFW-44" value="Page 1" style="strokeWidth=1;shadow=0;dashed=0;align=center;html=1;shape=mxgraph.mockup.containers.anchor;fontSize=17;fontColor=#666666;align=left;" vertex="1" parent="rZcW4xtwQy9miEPIbyFW-43">
          <mxGeometry x="60" y="12" width="110" height="26" as="geometry" />
        </mxCell>
        <mxCell id="rZcW4xtwQy9miEPIbyFW-45" value="https://www.ampsunlimited.com" style="strokeWidth=1;shadow=0;dashed=0;align=center;html=1;shape=mxgraph.mockup.containers.anchor;rSize=0;fontSize=17;fontColor=#666666;align=left;" vertex="1" parent="rZcW4xtwQy9miEPIbyFW-43">
          <mxGeometry x="130" y="60" width="250" height="26" as="geometry" />
        </mxCell>
        <mxCell id="rZcW4xtwQy9miEPIbyFW-46" value="" style="verticalLabelPosition=bottom;shadow=0;dashed=0;align=center;html=1;verticalAlign=top;strokeWidth=1;shape=mxgraph.mockup.markup.line;strokeColor=#999999;rounded=0;labelBackgroundColor=none;fillColor=#ffffff;fontFamily=Verdana;fontSize=12;fontColor=#000000;" vertex="1" parent="rZcW4xtwQy9miEPIbyFW-43">
          <mxGeometry y="146" width="1050" height="20" as="geometry" />
        </mxCell>
        <mxCell id="rZcW4xtwQy9miEPIbyFW-47" value="&lt;font color=&quot;#ffffff&quot;&gt;AMPS (Logo)&lt;/font&gt;" style="text;html=1;points=[];align=left;verticalAlign=top;spacingTop=-4;fontSize=15;fontFamily=Verdana" vertex="1" parent="rZcW4xtwQy9miEPIbyFW-43">
          <mxGeometry x="10" y="120" width="170" height="30" as="geometry" />
        </mxCell>
        <mxCell id="rZcW4xtwQy9miEPIbyFW-48" value="&lt;font color=&quot;#ff3333&quot;&gt;About&lt;/font&gt;" style="text;html=1;points=[];align=center;verticalAlign=top;spacingTop=-4;fontSize=15;fontFamily=Verdana" vertex="1" parent="rZcW4xtwQy9miEPIbyFW-43">
          <mxGeometry x="830" y="120" width="90" height="30" as="geometry" />
        </mxCell>
        <mxCell id="rZcW4xtwQy9miEPIbyFW-49" value="Contact Us" style="text;html=1;points=[];align=center;verticalAlign=top;spacingTop=-4;fontSize=15;fontFamily=Verdana" vertex="1" parent="rZcW4xtwQy9miEPIbyFW-43">
          <mxGeometry x="930" y="120" width="90" height="30" as="geometry" />
        </mxCell>
      </root>
    </mxGraphModel>
  </diagram>
  <diagram name="Landing" id="2cc2dc42-3aac-f2a9-1cec-7a8b7cbee084">
    <mxGraphModel dx="3333" dy="1487" grid="1" gridSize="10" guides="1" tooltips="1" connect="1" arrows="1" fold="1" page="1" pageScale="1" pageWidth="1100" pageHeight="850" background="#ffffff" math="0" shadow="0">
      <root>
        <mxCell id="0" />
        <mxCell id="1" parent="0" />
        <mxCell id="7026571954dc6520-1" value="" style="strokeWidth=1;shadow=0;dashed=0;align=center;html=1;shape=mxgraph.mockup.containers.browserWindow;rSize=0;strokeColor=#666666;mainText=,;recursiveResize=0;rounded=0;labelBackgroundColor=none;fontFamily=Verdana;fontSize=12" parent="1" vertex="1">
          <mxGeometry x="40" y="20" width="1050" height="2390" as="geometry" />
        </mxCell>
        <mxCell id="7026571954dc6520-2" value="Page 1" style="strokeWidth=1;shadow=0;dashed=0;align=center;html=1;shape=mxgraph.mockup.containers.anchor;fontSize=17;fontColor=#666666;align=left;" parent="7026571954dc6520-1" vertex="1">
          <mxGeometry x="60" y="12" width="110" height="26" as="geometry" />
        </mxCell>
        <mxCell id="7026571954dc6520-3" value="https://www.ampsunlimited.com" style="strokeWidth=1;shadow=0;dashed=0;align=center;html=1;shape=mxgraph.mockup.containers.anchor;rSize=0;fontSize=17;fontColor=#666666;align=left;" parent="7026571954dc6520-1" vertex="1">
          <mxGeometry x="130" y="60" width="250" height="26" as="geometry" />
        </mxCell>
        <mxCell id="7026571954dc6520-4" value="A&lt;font style=&quot;font-size: 20px;&quot;&gt;perion&lt;/font&gt;&lt;br&gt;M&lt;font style=&quot;font-size: 20px;&quot;&gt;arine&lt;/font&gt;&lt;br&gt;P&lt;font style=&quot;font-size: 20px;&quot;&gt;ower&lt;/font&gt;&lt;br&gt;S&lt;font style=&quot;font-size: 20px;&quot;&gt;ystems&lt;/font&gt;" style="text;html=1;points=[];align=left;verticalAlign=top;spacingTop=-4;fontSize=30;fontFamily=Verdana" parent="7026571954dc6520-1" vertex="1">
          <mxGeometry x="30" y="183" width="340" height="147" as="geometry" />
        </mxCell>
        <mxCell id="7026571954dc6520-6" value="Section 1" style="text;html=1;points=[];align=left;verticalAlign=top;spacingTop=-4;fontSize=15;fontFamily=Verdana" parent="7026571954dc6520-1" vertex="1">
          <mxGeometry x="540" y="194" width="170" height="30" as="geometry" />
        </mxCell>
        <mxCell id="7026571954dc6520-7" value="Some default text to fill some space, and&amp;nbsp;&lt;span&gt;something more so there is more text&lt;/span&gt;" style="text;html=1;points=[];align=left;verticalAlign=top;spacingTop=-4;fontSize=12;fontFamily=Verdana;whiteSpace=wrap;" parent="7026571954dc6520-1" vertex="1">
          <mxGeometry x="540" y="224" width="240" height="40" as="geometry" />
        </mxCell>
        <mxCell id="7026571954dc6520-8" value="Section 2" style="text;html=1;points=[];align=left;verticalAlign=top;spacingTop=-4;fontSize=15;fontFamily=Verdana" parent="7026571954dc6520-1" vertex="1">
          <mxGeometry x="540" y="284" width="170" height="30" as="geometry" />
        </mxCell>
        <mxCell id="7026571954dc6520-9" value="Some default text to fill some space, and&amp;nbsp;&lt;span&gt;something more so there is more text&lt;/span&gt;" style="text;html=1;points=[];align=left;verticalAlign=top;spacingTop=-4;fontSize=12;fontFamily=Verdana;whiteSpace=wrap;" parent="7026571954dc6520-1" vertex="1">
          <mxGeometry x="540" y="314" width="240" height="40" as="geometry" />
        </mxCell>
        <mxCell id="7026571954dc6520-10" value="Section 1" style="text;html=1;points=[];align=left;verticalAlign=top;spacingTop=-4;fontSize=15;fontFamily=Verdana" parent="7026571954dc6520-1" vertex="1">
          <mxGeometry x="800" y="194" width="170" height="30" as="geometry" />
        </mxCell>
        <mxCell id="7026571954dc6520-11" value="Some default text to fill some space, and&amp;nbsp;&lt;span&gt;something more so there is more text&lt;/span&gt;" style="text;html=1;points=[];align=left;verticalAlign=top;spacingTop=-4;fontSize=12;fontFamily=Verdana;whiteSpace=wrap;" parent="7026571954dc6520-1" vertex="1">
          <mxGeometry x="800" y="224" width="240" height="40" as="geometry" />
        </mxCell>
        <mxCell id="7026571954dc6520-12" value="Search" style="text;html=1;points=[];align=left;verticalAlign=top;spacingTop=-4;fontSize=15;fontFamily=Verdana" parent="7026571954dc6520-1" vertex="1">
          <mxGeometry x="800" y="284" width="170" height="30" as="geometry" />
        </mxCell>
        <mxCell id="7026571954dc6520-14" value="Search" style="strokeWidth=1;shadow=0;dashed=0;align=center;html=1;shape=mxgraph.mockup.forms.searchBox;strokeColor=#999999;mainText=;strokeColor2=#008cff;fontColor=#666666;fontSize=17;align=left;spacingLeft=3;rounded=0;labelBackgroundColor=none;" parent="7026571954dc6520-1" vertex="1">
          <mxGeometry x="800" y="314" width="220" height="30" as="geometry" />
        </mxCell>
        <mxCell id="7026571954dc6520-15" value="" style="verticalLabelPosition=bottom;shadow=0;dashed=0;align=center;html=1;verticalAlign=top;strokeWidth=1;shape=mxgraph.mockup.markup.line;strokeColor=#999999;rounded=0;labelBackgroundColor=none;fillColor=#ffffff;fontFamily=Verdana;fontSize=12;fontColor=#000000;" parent="7026571954dc6520-1" vertex="1">
          <mxGeometry y="146" width="1050" height="20" as="geometry" />
        </mxCell>
        <mxCell id="7026571954dc6520-16" value="Title 1" style="text;html=1;points=[];align=left;verticalAlign=top;spacingTop=-4;fontSize=15;fontFamily=Verdana" parent="7026571954dc6520-1" vertex="1">
          <mxGeometry x="20" y="330" width="170" height="30" as="geometry" />
        </mxCell>
        <mxCell id="7026571954dc6520-17" value="Lorem ipsum dolor sit amet, consectetur adipisicing elit, sed do eiusmod tempor incididunt ut labore et dolore magna aliqua. Ut enim ad minim veniam, quis nostrud exercitation ullamco laboris nisi ut aliquip ex ea commodo consequat. Duis aute irure dolor in reprehenderit in voluptate velit esse cillum dolore eu fugiat nulla pariatur. Excepteur sint occaecat cupidatat non proident, sunt in culpa qui officia deserunt mollit anim id est laborum.&#xa;Sed ut perspiciatis unde omnis iste natus error sit voluptatem accusantium doloremque laudantium, totam rem aperiam, eaque ipsa quae ab illo inventore veritatis et quasi architecto beatae vitae dicta sunt explicabo. Nemo enim ipsam voluptatem quia voluptas sit aspernatur aut odit aut fugit, sed quia consequuntur magni dolores eos qui ratione voluptatem sequi nesciunt. Neque porro quisquam est, qui dolorem ipsum quia dolor sit amet, consectetur, adipisci velit, sed quia non numquam eius modi tempora incidunt ut labore et dolore magnam aliquam quaerat voluptatem. Ut enim ad minima veniam, quis nostrum exercitationem ullam corporis suscipit laboriosam, nisi ut aliquid ex ea commodi consequatur? Quis autem vel eum iure reprehenderit qui in ea voluptate velit esse quam nihil molestiae consequatur, vel illum qui dolorem eum fugiat quo voluptas nulla pariatur?" style="text;spacingTop=-5;whiteSpace=wrap;html=1;align=left;fontSize=12;fontFamily=Helvetica;fillColor=none;strokeColor=none;rounded=0;shadow=1;labelBackgroundColor=none;" parent="7026571954dc6520-1" vertex="1">
          <mxGeometry x="20" y="370" width="570" height="240" as="geometry" />
        </mxCell>
        <mxCell id="7026571954dc6520-18" value="Button 1" style="strokeWidth=1;shadow=0;dashed=0;align=center;html=1;shape=mxgraph.mockup.buttons.button;strokeColor=#666666;mainText=;buttonStyle=round;fontSize=17;fontStyle=0;fillColor=none;whiteSpace=wrap;rounded=0;labelBackgroundColor=none;" parent="7026571954dc6520-1" vertex="1">
          <mxGeometry x="790" y="360" width="190" height="30" as="geometry" />
        </mxCell>
        <mxCell id="7026571954dc6520-19" value="Button 2" style="strokeWidth=1;shadow=0;dashed=0;align=center;html=1;shape=mxgraph.mockup.buttons.button;strokeColor=#666666;mainText=;buttonStyle=round;fontSize=17;fontStyle=0;fillColor=none;whiteSpace=wrap;rounded=0;labelBackgroundColor=none;" parent="7026571954dc6520-1" vertex="1">
          <mxGeometry x="790" y="405" width="190" height="30" as="geometry" />
        </mxCell>
        <mxCell id="7026571954dc6520-20" value="Some default text to fill some space, and&amp;nbsp;&lt;span&gt;something more so there is more text&lt;/span&gt;" style="text;html=1;points=[];align=left;verticalAlign=top;spacingTop=-4;fontSize=12;fontFamily=Verdana;whiteSpace=wrap;" parent="7026571954dc6520-1" vertex="1">
          <mxGeometry x="790" y="450" width="240" height="40" as="geometry" />
        </mxCell>
        <mxCell id="7026571954dc6520-21" value="" style="verticalLabelPosition=bottom;shadow=0;dashed=0;align=center;html=1;verticalAlign=top;strokeWidth=1;shape=mxgraph.mockup.markup.line;strokeColor=#999999;rounded=0;labelBackgroundColor=none;fillColor=#ffffff;fontFamily=Verdana;fontSize=12;fontColor=#000000;" parent="7026571954dc6520-1" vertex="1">
          <mxGeometry y="673" width="1050" height="20" as="geometry" />
        </mxCell>
        <mxCell id="7026571954dc6520-22" value="&lt;font color=&quot;#ffffff&quot;&gt;Representative Image&lt;/font&gt;" style="verticalLabelPosition=bottom;shadow=0;dashed=0;align=center;html=1;verticalAlign=top;strokeWidth=1;shape=mxgraph.mockup.graphics.simpleIcon;strokeColor=#999999;fillColor=#ffffff;rounded=0;labelBackgroundColor=none;fontFamily=Verdana;fontSize=12;fontColor=#000000;" parent="7026571954dc6520-1" vertex="1">
          <mxGeometry x="15" y="703" width="200" height="200" as="geometry" />
        </mxCell>
        <mxCell id="7026571954dc6520-34" value="Some default text to fill some space, and&amp;nbsp;&lt;span&gt;something more so there is more text&lt;/span&gt;" style="text;html=1;points=[];align=left;verticalAlign=top;spacingTop=-4;fontSize=12;fontFamily=Verdana;whiteSpace=wrap;" parent="7026571954dc6520-1" vertex="1">
          <mxGeometry x="270" y="743" width="470" height="40" as="geometry" />
        </mxCell>
        <mxCell id="EnPPJlM6c8UzJdMhWwMo-1" value="AMPS (Logo)" style="text;html=1;points=[];align=left;verticalAlign=top;spacingTop=-4;fontSize=15;fontFamily=Verdana" vertex="1" parent="7026571954dc6520-1">
          <mxGeometry x="10" y="120" width="170" height="30" as="geometry" />
        </mxCell>
        <mxCell id="EnPPJlM6c8UzJdMhWwMo-2" value="About" style="text;html=1;points=[];align=center;verticalAlign=top;spacingTop=-4;fontSize=15;fontFamily=Verdana" vertex="1" parent="7026571954dc6520-1">
          <mxGeometry x="830" y="120" width="90" height="30" as="geometry" />
        </mxCell>
        <mxCell id="EnPPJlM6c8UzJdMhWwMo-3" value="Contact Us" style="text;html=1;points=[];align=center;verticalAlign=top;spacingTop=-4;fontSize=15;fontFamily=Verdana" vertex="1" parent="7026571954dc6520-1">
          <mxGeometry x="930" y="120" width="90" height="30" as="geometry" />
        </mxCell>
        <mxCell id="EnPPJlM6c8UzJdMhWwMo-4" value="Philosophy" style="text;html=1;points=[];align=center;verticalAlign=top;spacingTop=-4;fontSize=15;fontFamily=Verdana" vertex="1" parent="7026571954dc6520-1">
          <mxGeometry x="740" y="120" width="90" height="30" as="geometry" />
        </mxCell>
        <mxCell id="EnPPJlM6c8UzJdMhWwMo-7" value="Down" style="verticalLabelPosition=middle;verticalAlign=middle;html=1;shape=mxgraph.basic.acute_triangle;dx=0.5;rotation=-180;labelPosition=center;align=center;horizontal=1;" vertex="1" parent="7026571954dc6520-1">
          <mxGeometry x="475" y="600" width="100" height="70" as="geometry" />
        </mxCell>
        <mxCell id="EnPPJlM6c8UzJdMhWwMo-10" value="" style="verticalLabelPosition=bottom;shadow=0;dashed=0;align=center;html=1;verticalAlign=top;strokeWidth=1;shape=mxgraph.mockup.markup.line;strokeColor=#999999;rounded=0;labelBackgroundColor=none;fillColor=#ffffff;fontFamily=Verdana;fontSize=12;fontColor=#000000;" vertex="1" parent="7026571954dc6520-1">
          <mxGeometry y="1239" width="1050" height="20" as="geometry" />
        </mxCell>
        <mxCell id="EnPPJlM6c8UzJdMhWwMo-13" value="" style="verticalLabelPosition=bottom;shadow=0;dashed=0;align=center;html=1;verticalAlign=top;strokeWidth=1;shape=mxgraph.mockup.markup.line;strokeColor=#999999;rounded=0;labelBackgroundColor=none;fillColor=#ffffff;fontFamily=Verdana;fontSize=12;fontColor=#000000;" vertex="1" parent="7026571954dc6520-1">
          <mxGeometry y="1810" width="1050" height="20" as="geometry" />
        </mxCell>
        <mxCell id="EnPPJlM6c8UzJdMhWwMo-45" value="High Charge Rate" style="text;html=1;points=[];align=left;verticalAlign=top;spacingTop=-4;fontSize=15;fontFamily=Verdana" vertex="1" parent="7026571954dc6520-1">
          <mxGeometry x="90" y="1160" width="200" height="30" as="geometry" />
        </mxCell>
        <mxCell id="EnPPJlM6c8UzJdMhWwMo-46" value="Maximum Capacity" style="text;html=1;points=[];align=left;verticalAlign=top;spacingTop=-4;fontSize=15;fontFamily=Verdana" vertex="1" parent="7026571954dc6520-1">
          <mxGeometry x="340" y="1160" width="200" height="30" as="geometry" />
        </mxCell>
        <mxCell id="EnPPJlM6c8UzJdMhWwMo-47" value="Resiliance" style="text;html=1;points=[];align=left;verticalAlign=top;spacingTop=-4;fontSize=15;fontFamily=Verdana" vertex="1" parent="7026571954dc6520-1">
          <mxGeometry x="630" y="1160" width="200" height="30" as="geometry" />
        </mxCell>
        <mxCell id="EnPPJlM6c8UzJdMhWwMo-48" value="Simplicity" style="text;html=1;points=[];align=center;verticalAlign=top;spacingTop=-4;fontSize=15;fontFamily=Verdana" vertex="1" parent="7026571954dc6520-1">
          <mxGeometry x="760" y="1160" width="200" height="30" as="geometry" />
        </mxCell>
        <mxCell id="EnPPJlM6c8UzJdMhWwMo-50" value="Lets start the conversation today!" style="text;html=1;points=[];align=center;verticalAlign=top;spacingTop=-4;fontSize=15;fontFamily=Verdana" vertex="1" parent="7026571954dc6520-1">
          <mxGeometry x="390" y="2030" width="270" height="30" as="geometry" />
        </mxCell>
        <mxCell id="EnPPJlM6c8UzJdMhWwMo-51" value="&lt;font color=&quot;#ffffff&quot;&gt;Representative Image&lt;/font&gt;" style="verticalLabelPosition=bottom;shadow=0;dashed=0;align=center;html=1;verticalAlign=top;strokeWidth=1;shape=mxgraph.mockup.graphics.simpleIcon;strokeColor=#999999;fillColor=#ffffff;rounded=0;labelBackgroundColor=none;fontFamily=Verdana;fontSize=12;fontColor=#000000;" vertex="1" parent="7026571954dc6520-1">
          <mxGeometry x="90" y="1310" width="200" height="200" as="geometry" />
        </mxCell>
        <mxCell id="EnPPJlM6c8UzJdMhWwMo-52" value="&lt;font color=&quot;#ffffff&quot;&gt;Representative Image&lt;/font&gt;" style="verticalLabelPosition=bottom;shadow=0;dashed=0;align=center;html=1;verticalAlign=top;strokeWidth=1;shape=mxgraph.mockup.graphics.simpleIcon;strokeColor=#999999;fillColor=#ffffff;rounded=0;labelBackgroundColor=none;fontFamily=Verdana;fontSize=12;fontColor=#000000;" vertex="1" parent="7026571954dc6520-1">
          <mxGeometry x="360" y="1310" width="200" height="200" as="geometry" />
        </mxCell>
        <mxCell id="7026571954dc6520-36" value="Lorem ipsum dolor sit amet, consectetur adipisicing elit, sed do eiusmod tempor incididunt ut labore et dolore magna aliqua. Ut enim ad minim veniam, quis nostrud exercitation ullamco laboris nisi ut aliquip ex ea commodo consequat. Duis aute irure dolor in reprehenderit in voluptate velit esse cillum dolore eu fugiat nulla pariatur. Excepteur sint occaecat cupidatat non proident, sunt in culpa qui officia deserunt mollit anim id est laborum.&lt;br&gt;Sed ut perspiciatis unde omnis iste natus error sit voluptatem accusantium doloremque laudantium, totam rem aperiam, eaque ipsa quae ab illo inventore veritatis et quasi architecto beatae vitae dicta sunt explicabo.&amp;nbsp;" style="text;spacingTop=-5;whiteSpace=wrap;html=1;align=left;fontSize=12;fontFamily=Helvetica;fillColor=none;strokeColor=none;rounded=0;shadow=1;labelBackgroundColor=none;" parent="1" vertex="1">
          <mxGeometry x="300" y="798" width="490" height="125" as="geometry" />
        </mxCell>
        <mxCell id="EnPPJlM6c8UzJdMhWwMo-8" value="Window Height" style="html=1;shadow=0;dashed=0;align=center;verticalAlign=middle;shape=mxgraph.arrows2.twoWayArrow;dy=0.6;dx=35;rotation=-90;" vertex="1" parent="1">
          <mxGeometry x="-295" y="385" width="570" height="60" as="geometry" />
        </mxCell>
        <mxCell id="EnPPJlM6c8UzJdMhWwMo-9" value="Window Height" style="html=1;shadow=0;dashed=0;align=center;verticalAlign=middle;shape=mxgraph.arrows2.twoWayArrow;dy=0.6;dx=35;rotation=-90;" vertex="1" parent="1">
          <mxGeometry x="-295" y="955" width="570" height="60" as="geometry" />
        </mxCell>
        <mxCell id="EnPPJlM6c8UzJdMhWwMo-11" value="Window Height" style="html=1;shadow=0;dashed=0;align=center;verticalAlign=middle;shape=mxgraph.arrows2.twoWayArrow;dy=0.6;dx=35;rotation=-90;" vertex="1" parent="1">
          <mxGeometry x="-295" y="1525" width="570" height="60" as="geometry" />
        </mxCell>
        <mxCell id="EnPPJlM6c8UzJdMhWwMo-12" value="Window Height" style="html=1;shadow=0;dashed=0;align=center;verticalAlign=middle;shape=mxgraph.arrows2.twoWayArrow;dy=0.6;dx=35;rotation=-90;" vertex="1" parent="1">
          <mxGeometry x="-295" y="2095" width="570" height="60" as="geometry" />
        </mxCell>
        <mxCell id="EnPPJlM6c8UzJdMhWwMo-14" value="" style="strokeWidth=1;shadow=0;dashed=0;align=center;html=1;shape=mxgraph.mockup.containers.browserWindow;rSize=0;strokeColor=#666666;mainText=,;recursiveResize=0;rounded=0;labelBackgroundColor=none;fontFamily=Verdana;fontSize=12" vertex="1" parent="1">
          <mxGeometry x="1220" y="20" width="1050" height="2390" as="geometry" />
        </mxCell>
        <mxCell id="EnPPJlM6c8UzJdMhWwMo-15" value="Page 1" style="strokeWidth=1;shadow=0;dashed=0;align=center;html=1;shape=mxgraph.mockup.containers.anchor;fontSize=17;fontColor=#666666;align=left;" vertex="1" parent="EnPPJlM6c8UzJdMhWwMo-14">
          <mxGeometry x="60" y="12" width="110" height="26" as="geometry" />
        </mxCell>
        <mxCell id="EnPPJlM6c8UzJdMhWwMo-16" value="https://www.ampsunlimited.com" style="strokeWidth=1;shadow=0;dashed=0;align=center;html=1;shape=mxgraph.mockup.containers.anchor;rSize=0;fontSize=17;fontColor=#666666;align=left;" vertex="1" parent="EnPPJlM6c8UzJdMhWwMo-14">
          <mxGeometry x="130" y="60" width="250" height="26" as="geometry" />
        </mxCell>
        <mxCell id="EnPPJlM6c8UzJdMhWwMo-18" value="Form Submission" style="text;html=1;points=[];align=center;verticalAlign=top;spacingTop=-4;fontSize=15;fontFamily=Verdana" vertex="1" parent="EnPPJlM6c8UzJdMhWwMo-14">
          <mxGeometry x="440" y="370" width="170" height="30" as="geometry" />
        </mxCell>
        <mxCell id="EnPPJlM6c8UzJdMhWwMo-26" value="" style="verticalLabelPosition=bottom;shadow=0;dashed=0;align=center;html=1;verticalAlign=top;strokeWidth=1;shape=mxgraph.mockup.markup.line;strokeColor=#999999;rounded=0;labelBackgroundColor=none;fillColor=#ffffff;fontFamily=Verdana;fontSize=12;fontColor=#000000;" vertex="1" parent="EnPPJlM6c8UzJdMhWwMo-14">
          <mxGeometry y="146" width="1050" height="20" as="geometry" />
        </mxCell>
        <mxCell id="EnPPJlM6c8UzJdMhWwMo-32" value="" style="verticalLabelPosition=bottom;shadow=0;dashed=0;align=center;html=1;verticalAlign=top;strokeWidth=1;shape=mxgraph.mockup.markup.line;strokeColor=#999999;rounded=0;labelBackgroundColor=none;fillColor=#ffffff;fontFamily=Verdana;fontSize=12;fontColor=#000000;" vertex="1" parent="EnPPJlM6c8UzJdMhWwMo-14">
          <mxGeometry y="673" width="1050" height="20" as="geometry" />
        </mxCell>
        <mxCell id="EnPPJlM6c8UzJdMhWwMo-33" value="" style="verticalLabelPosition=bottom;shadow=0;dashed=0;align=center;html=1;verticalAlign=top;strokeWidth=1;shape=mxgraph.mockup.graphics.simpleIcon;strokeColor=#999999;fillColor=#ffffff;rounded=0;labelBackgroundColor=none;fontFamily=Verdana;fontSize=12;fontColor=#000000;" vertex="1" parent="EnPPJlM6c8UzJdMhWwMo-14">
          <mxGeometry x="15" y="703" width="200" height="200" as="geometry" />
        </mxCell>
        <mxCell id="EnPPJlM6c8UzJdMhWwMo-34" value="Title 3" style="text;html=1;points=[];align=left;verticalAlign=top;spacingTop=-4;fontSize=15;fontFamily=Verdana" vertex="1" parent="EnPPJlM6c8UzJdMhWwMo-14">
          <mxGeometry x="780" y="703" width="170" height="30" as="geometry" />
        </mxCell>
        <mxCell id="EnPPJlM6c8UzJdMhWwMo-35" value="&lt;div style=&quot;text-align: justify&quot;&gt;&lt;span&gt;Some default text to fill some space, and&amp;nbsp;&lt;/span&gt;&lt;span&gt;something more so there is more text&lt;/span&gt;&lt;/div&gt;&lt;div style=&quot;text-align: justify&quot;&gt;&lt;hr id=&quot;null&quot; style=&quot;text-align: justify&quot;&gt;&lt;span&gt;&lt;div style=&quot;text-align: justify&quot;&gt;&lt;span&gt;Some default text to fill some space, and&amp;nbsp;&lt;/span&gt;&lt;span&gt;something more so there is more text&lt;/span&gt;&lt;/div&gt;&lt;/span&gt;&lt;/div&gt;&lt;hr id=&quot;null&quot; style=&quot;text-align: justify&quot;&gt;&lt;span&gt;&lt;div style=&quot;text-align: justify&quot;&gt;&lt;span&gt;Some default text to fill some space, and&amp;nbsp;&lt;/span&gt;&lt;span&gt;something more so there is more text&lt;/span&gt;&lt;/div&gt;&lt;/span&gt;&lt;hr id=&quot;null&quot; style=&quot;text-align: justify&quot;&gt;&lt;span&gt;&lt;div style=&quot;text-align: justify&quot;&gt;&lt;span&gt;Some default text to fill some space, and&amp;nbsp;&lt;/span&gt;&lt;span&gt;something more so there is more text&lt;/span&gt;&lt;/div&gt;&lt;/span&gt;&lt;hr id=&quot;null&quot; style=&quot;text-align: left&quot;&gt;" style="whiteSpace=wrap;html=1;rounded=0;shadow=0;labelBackgroundColor=none;strokeWidth=1;fontFamily=Verdana;fontSize=12;align=center;verticalAlign=top;" vertex="1" parent="EnPPJlM6c8UzJdMhWwMo-14">
          <mxGeometry x="780" y="733" width="260" height="170" as="geometry" />
        </mxCell>
        <mxCell id="EnPPJlM6c8UzJdMhWwMo-36" value="Some default text to fill some space, and&amp;nbsp;&lt;span&gt;something more so there is more text&lt;/span&gt;" style="text;html=1;points=[];align=left;verticalAlign=top;spacingTop=-4;fontSize=12;fontFamily=Verdana;whiteSpace=wrap;" vertex="1" parent="EnPPJlM6c8UzJdMhWwMo-14">
          <mxGeometry x="270" y="743" width="470" height="40" as="geometry" />
        </mxCell>
        <mxCell id="EnPPJlM6c8UzJdMhWwMo-37" value="AMPS (Logo)" style="text;html=1;points=[];align=left;verticalAlign=top;spacingTop=-4;fontSize=15;fontFamily=Verdana" vertex="1" parent="EnPPJlM6c8UzJdMhWwMo-14">
          <mxGeometry x="10" y="120" width="170" height="30" as="geometry" />
        </mxCell>
        <mxCell id="EnPPJlM6c8UzJdMhWwMo-38" value="About" style="text;html=1;points=[];align=center;verticalAlign=top;spacingTop=-4;fontSize=15;fontFamily=Verdana" vertex="1" parent="EnPPJlM6c8UzJdMhWwMo-14">
          <mxGeometry x="830" y="120" width="90" height="30" as="geometry" />
        </mxCell>
        <mxCell id="EnPPJlM6c8UzJdMhWwMo-39" value="Contact Us" style="text;html=1;points=[];align=center;verticalAlign=top;spacingTop=-4;fontSize=15;fontFamily=Verdana" vertex="1" parent="EnPPJlM6c8UzJdMhWwMo-14">
          <mxGeometry x="930" y="120" width="90" height="30" as="geometry" />
        </mxCell>
        <mxCell id="EnPPJlM6c8UzJdMhWwMo-40" value="Philosophy" style="text;html=1;points=[];align=center;verticalAlign=top;spacingTop=-4;fontSize=15;fontFamily=Verdana" vertex="1" parent="EnPPJlM6c8UzJdMhWwMo-14">
          <mxGeometry x="740" y="120" width="90" height="30" as="geometry" />
        </mxCell>
        <mxCell id="EnPPJlM6c8UzJdMhWwMo-42" value="" style="verticalLabelPosition=bottom;shadow=0;dashed=0;align=center;html=1;verticalAlign=top;strokeWidth=1;shape=mxgraph.mockup.markup.line;strokeColor=#999999;rounded=0;labelBackgroundColor=none;fillColor=#ffffff;fontFamily=Verdana;fontSize=12;fontColor=#000000;" vertex="1" parent="EnPPJlM6c8UzJdMhWwMo-14">
          <mxGeometry y="1239" width="1050" height="20" as="geometry" />
        </mxCell>
        <mxCell id="EnPPJlM6c8UzJdMhWwMo-43" value="" style="verticalLabelPosition=bottom;shadow=0;dashed=0;align=center;html=1;verticalAlign=top;strokeWidth=1;shape=mxgraph.mockup.markup.line;strokeColor=#999999;rounded=0;labelBackgroundColor=none;fillColor=#ffffff;fontFamily=Verdana;fontSize=12;fontColor=#000000;" vertex="1" parent="EnPPJlM6c8UzJdMhWwMo-14">
          <mxGeometry y="1810" width="1050" height="20" as="geometry" />
        </mxCell>
        <mxCell id="EnPPJlM6c8UzJdMhWwMo-44" value="Title 2" style="text;html=1;points=[];align=left;verticalAlign=top;spacingTop=-4;fontSize=15;fontFamily=Verdana" vertex="1" parent="EnPPJlM6c8UzJdMhWwMo-14">
          <mxGeometry x="260" y="1821" width="170" height="30" as="geometry" />
        </mxCell>
        <mxCell id="7026571954dc6520-33" value="&lt;div style=&quot;text-align: justify&quot;&gt;&lt;span&gt;Some default text to fill some space, and&amp;nbsp;&lt;/span&gt;&lt;span&gt;something more so there is more text&lt;/span&gt;&lt;/div&gt;&lt;div style=&quot;text-align: justify&quot;&gt;&lt;hr id=&quot;null&quot; style=&quot;text-align: justify&quot;&gt;&lt;span&gt;&lt;div style=&quot;text-align: justify&quot;&gt;&lt;span&gt;Some default text to fill some space, and&amp;nbsp;&lt;/span&gt;&lt;span&gt;something more so there is more text&lt;/span&gt;&lt;/div&gt;&lt;/span&gt;&lt;/div&gt;&lt;hr id=&quot;null&quot; style=&quot;text-align: justify&quot;&gt;&lt;span&gt;&lt;div style=&quot;text-align: justify&quot;&gt;&lt;span&gt;Some default text to fill some space, and&amp;nbsp;&lt;/span&gt;&lt;span&gt;something more so there is more text&lt;/span&gt;&lt;/div&gt;&lt;/span&gt;&lt;hr id=&quot;null&quot; style=&quot;text-align: justify&quot;&gt;&lt;span&gt;&lt;div style=&quot;text-align: justify&quot;&gt;&lt;span&gt;Some default text to fill some space, and&amp;nbsp;&lt;/span&gt;&lt;span&gt;something more so there is more text&lt;/span&gt;&lt;/div&gt;&lt;/span&gt;&lt;hr id=&quot;null&quot; style=&quot;text-align: left&quot;&gt;" style="whiteSpace=wrap;html=1;rounded=0;shadow=0;labelBackgroundColor=none;strokeWidth=1;fontFamily=Verdana;fontSize=12;align=center;verticalAlign=top;" parent="EnPPJlM6c8UzJdMhWwMo-14" vertex="1">
          <mxGeometry x="30" y="440" width="260" height="170" as="geometry" />
        </mxCell>
        <mxCell id="7026571954dc6520-32" value="Title 3" style="text;html=1;points=[];align=left;verticalAlign=top;spacingTop=-4;fontSize=15;fontFamily=Verdana" parent="EnPPJlM6c8UzJdMhWwMo-14" vertex="1">
          <mxGeometry x="75" y="370" width="170" height="30" as="geometry" />
        </mxCell>
      </root>
    </mxGraphModel>
  </diagram>
</mxfile>
